<?xml version="1.0" encoding="UTF-8"?>
<!DOCTYPE svg PUBLIC "-//W3C//DTD SVG 1.1//EN" "http://www.w3.org/Graphics/SVG/1.1/DTD/svg11.dtd">
<!-- Creator: CorelDRAW 2021 (64-Bit) -->
<?xml-stylesheet href="PG logo.css" type="text/css"?>
<svg xmlns="http://www.w3.org/2000/svg" xml:space="preserve" width="210mm" height="297mm" version="1.1" style="shape-rendering:geometricPrecision; text-rendering:geometricPrecision; image-rendering:optimizeQuality; fill-rule:evenodd; clip-rule:evenodd"
viewBox="0 0 21000 29700"
 xmlns:xlink="http://www.w3.org/1999/xlink"
 xmlns:xodm="http://www.corel.com/coreldraw/odm/2003">
 <g id="Layer_x0020_1">
  <metadata id="CorelCorpID_0Corel-Layer"/>
  <g id="_2008314037568">
   <path class="fil0" d="M6393.94 6080.67c152.45,51.12 1844.07,1056.84 2133,1226.23 133.73,78.41 211.56,158.89 390.78,162.93 171.65,3.87 358.63,1.52 530.67,-2.02 -47.72,-80.61 -1476.39,-883 -1690.66,-1004.32 -173.48,-98.24 -1553.45,-920.9 -1696.9,-968.46l-1.56 4292.15c151.51,-40.4 2742.95,-1567.74 3198.48,-1818.36 110.77,-60.94 383.47,-192.83 445.08,-294.61 -366.37,3.07 -734.95,3 -1101.24,1.29 -239.14,-1.12 -245.89,20.98 -416.2,119.41 -103.33,59.72 -259.38,130.21 -329.46,213.98l571.16 8 -1499.79 874.82c-142.32,83.64 -380.44,241.31 -534.09,289.85l0.73 -3100.89z"/>
   <path class="fil1" d="M6566.15 8889.62l365.83 -200.69 -2.85 -1645.29c103.53,26.14 686.81,361.57 741.73,427.26 -167.34,128.34 -462.73,256.81 -643.99,376.99l-0.82 409.94c132.77,-10.21 1158.74,-681.16 1373.33,-773.93 -60.49,-104.89 -1751.25,-1056.77 -1833.2,-1070.94l-0.03 2476.66z"/>
  </g>
 </g>
</svg>
