<?xml version="1.0" standalone="no"?>
<!DOCTYPE svg PUBLIC "-//W3C//DTD SVG 20010904//EN"
 "http://www.w3.org/TR/2001/REC-SVG-20010904/DTD/svg10.dtd">
<svg version="1.0" xmlns="http://www.w3.org/2000/svg"
 width="431.000000pt" height="508.000000pt" viewBox="0 0 431.000000 508.000000"
 preserveAspectRatio="xMidYMid meet">
<metadata>
Created by potrace 1.16, written by Peter Selinger 2001-2019
</metadata>
<g transform="translate(0.000000,508.000000) scale(0.100000,-0.100000)"
fill="#000000" stroke="none">
<path d="M10 2545 l0 -2535 103 51 c193 97 845 466 1797 1017 223 129 522 302
665 384 143 83 296 172 340 198 195 116 843 485 975 555 224 120 422 257 407
282 -3 4 -346 6 -764 3 -665 -4 -763 -7 -800 -21 -39 -15 -242 -126 -415 -227
-43 -25 -103 -66 -135 -91 l-58 -46 265 -7 c146 -4 296 -8 334 -10 l69 -3
-814 -474 c-448 -261 -926 -542 -1064 -624 -230 -138 -472 -267 -502 -267 -10
0 -13 373 -13 1831 l0 1831 143 -75 c143 -75 579 -323 977 -555 548 -319 1363
-801 1559 -921 47 -28 108 -58 135 -67 72 -22 312 -33 568 -27 187 5 216 8
206 20 -43 53 -631 404 -1483 888 -231 131 -699 401 -1040 600 -928 542 -1198
696 -1372 784 l-83 41 0 -2535z"/>
<path d="M600 2535 c0 -1003 3 -1455 10 -1455 11 0 183 91 341 181 l86 49 -5
970 c-3 567 -1 970 4 970 20 0 279 -133 439 -225 200 -115 425 -260 425 -274
0 -23 -115 -95 -414 -258 -116 -63 -239 -132 -273 -152 l-63 -36 0 -242 c0
-196 3 -243 13 -243 22 0 203 92 359 181 78 45 351 207 606 360 255 153 502
297 548 321 46 24 84 48 84 54 0 15 -180 140 -370 256 -581 356 -1726 998
-1780 998 -7 0 -10 -474 -10 -1455z"/>
</g>
</svg>
